Coordinates
version=1
nRows=27
nColumns=38
inDegrees=no

Units are S.I. units (second, meters, Newtons, ...)
If the header above contains a line with 'inDegrees', this indicates whether rotational values are in degrees (yes) or radians (no).

endheader
time	pelvis_tilt	pelvis_list	pelvis_rotation	pelvis_tx	pelvis_ty	pelvis_tz	hip_flexion_r	hip_adduction_r	hip_rotation_r	knee_angle_r	ankle_angle_r	subtalar_angle_r	mtp_angle_r	hip_flexion_l	hip_adduction_l	hip_rotation_l	knee_angle_l	ankle_angle_l	subtalar_angle_l	mtp_angle_l	lumbar_extension	lumbar_bending	lumbar_rotation	arm_flex_r	arm_add_r	arm_rot_r	elbow_flex_r	pro_sup_r	wrist_flex_r	wrist_dev_r	arm_flex_l	arm_add_l	arm_rot_l	elbow_flex_l	pro_sup_l	wrist_flex_l	wrist_dev_l
1.57	0.147109	0.978905	1.61625	0.809764	1.1954	1.00354	0.902083	-0.102358	-0.043227	0	-0.276871	0	0	0.391251	0.0300643	-0.111523	0.199143	-0.112617	0	0	0.588944	-0.0253432	-0.0735899	-0.373931	-0.251226	0.287341	0.34718	1.28756	0	0	-0.390059	-0.104312	-0.623262	0.675868	1.13494	0	0
1.58	0.148305	0.977164	1.62509	0.808901	1.20715	1.00113	0.905979	-0.105939	-0.0554445	0	-0.274927	0	0	0.383584	0.029891	-0.102584	0.20559	-0.104956	0	0	0.58921	-0.0282842	-0.0787457	-0.3719	-0.250046	0.289195	0.341482	1.28553	0	0	-0.387151	-0.107679	-0.613551	0.678894	1.12661	0	0
1.59	0.149896	0.976172	1.63269	0.808111	1.21912	0.998763	0.910139	-0.108295	-0.063947	0	-0.263081	0	0	0.376302	0.028817	-0.0953811	0.214406	-0.0992775	0	0	0.589099	-0.0301411	-0.0828745	-0.370839	-0.249491	0.290026	0.337828	1.28391	0	0	-0.383427	-0.110591	-0.604605	0.680849	1.11608	0	0
1.6	0.150906	0.976036	1.63917	0.807448	1.23133	0.996493	0.914408	-0.109549	-0.0649662	0	-0.25488	0	0	0.369292	0.0275209	-0.0895637	0.225763	-0.0960443	0	0	0.588639	-0.0312374	-0.0856056	-0.370289	-0.24928	0.289681	0.335646	1.28308	0	0	-0.379383	-0.112289	-0.600055	0.681969	1.1111	0	0
1.61	0.15201	0.976625	1.64414	0.806866	1.24381	0.994405	0.919349	-0.10953	-0.0620645	0	-0.249411	0	0	0.362273	0.025686	-0.0851883	0.238641	-0.0926492	0	0	0.587948	-0.0311926	-0.0881336	-0.369216	-0.249509	0.288329	0.333665	1.28146	0	0	-0.376148	-0.11398	-0.595571	0.681697	1.10778	0	0
1.62	0.153971	0.977898	1.64715	0.806386	1.25654	0.99253	0.924159	-0.10791	-0.0568793	0	-0.247254	0	0	0.355038	0.022608	-0.0811839	0.253616	-0.089136	0	0	0.586933	-0.0297768	-0.0904618	-0.367725	-0.249944	0.286231	0.331769	1.27907	0	0	-0.373317	-0.11573	-0.590843	0.679827	1.1053	0	0
1.63	0.156878	0.97968	1.6482	0.805929	1.26961	0.990867	0.930421	-0.104419	-0.0561298	0.0212457	-0.244653	0	0	0.347724	0.0183129	-0.0783264	0.270186	-0.08471	0	0	0.585913	-0.026883	-0.0922248	-0.366424	-0.250535	0.282527	0.330037	1.27492	0	0	-0.370484	-0.116908	-0.585917	0.676506	1.09981	0	0
1.64	0.159929	0.981994	1.64865	0.805459	1.28313	0.989376	0.937738	-0.0999507	-0.0624949	0.0643905	-0.237146	0	0	0.340372	0.0136171	-0.0777695	0.287215	-0.0821444	0	0	0.585397	-0.0235407	-0.0940083	-0.366319	-0.251855	0.278657	0.33	1.27102	0	0	-0.369322	-0.118158	-0.580374	0.672928	1.09378	0	0
1.65	0.163292	0.98509	1.64899	0.804984	1.29713	0.988035	0.941073	-0.095194	-0.0656967	0.105422	-0.230469	0	0	0.333108	0.00845998	-0.0779476	0.306416	-0.0818599	0	0	0.585148	-0.0202902	-0.0965905	-0.367155	-0.253782	0.275515	0.331317	1.26879	0	0	-0.369948	-0.119171	-0.576168	0.669501	1.08976	0	0
1.66	0.16836	0.988204	1.64806	0.804524	1.31158	0.986791	0.94068	-0.089388	-0.0663971	0.138974	-0.23001	0	0	0.327111	0.00227114	-0.0777544	0.329073	-0.0827821	0	0	0.586266	-0.0165677	-0.0999308	-0.369135	-0.255876	0.271462	0.33331	1.26681	0	0	-0.371937	-0.120003	-0.573071	0.665843	1.08751	0	0
1.67	0.176088	0.989446	1.64442	0.804194	1.32619	0.985548	0.939122	-0.0821552	-0.0629052	0.160101	-0.245446	0	0	0.324901	-0.00599904	-0.0758142	0.354027	-0.0859019	0	0	0.590648	-0.0116175	-0.103142	-0.37258	-0.257778	0.265899	0.335879	1.26424	0	0	-0.374754	-0.120625	-0.570891	0.662003	1.0867	0	0
1.68	0.184664	0.987838	1.63907	0.804008	1.3408	0.984384	0.939959	-0.0751844	-0.0563088	0.172945	-0.275117	0	0	0.32791	-0.0141661	-0.0705894	0.3826	-0.0915766	0	0	0.599014	-0.00584498	-0.105218	-0.377148	-0.259352	0.258295	0.338608	1.25984	0	0	-0.377875	-0.121077	-0.569076	0.657222	1.08687	0	0
1.69	0.193169	0.985085	1.63248	0.803883	1.35544	0.983472	0.943313	-0.0684987	-0.0531108	0.186803	-0.306621	0	0	0.33431	-0.0219143	-0.062427	0.415311	-0.101008	0	0	0.608829	0.00109766	-0.105522	-0.382684	-0.261191	0.24891	0.342328	1.25433	0	0	-0.380361	-0.120879	-0.567832	0.650969	1.08733	0	0
1.7	0.202589	0.983266	1.62336	0.803884	1.37014	0.983051	0.946284	-0.0601671	-0.0555655	0.205989	-0.31836	0	0	0.341658	-0.030661	-0.0543264	0.451939	-0.112847	0	0	0.61694	0.00996698	-0.105519	-0.386357	-0.26325	0.239882	0.344698	1.24842	0	0	-0.382554	-0.119921	-0.566613	0.643766	1.0886	0	0
1.71	0.212768	0.981385	1.6111	0.804115	1.38483	0.983013	0.949178	-0.0493938	-0.0568639	0.230975	-0.311857	0	0	0.351261	-0.0406718	-0.0468617	0.493306	-0.12929	0	0	0.623867	0.021156	-0.103896	-0.389792	-0.265576	0.228858	0.348457	1.24074	0	0	-0.384366	-0.118562	-0.564199	0.636235	1.09041	0	0
1.72	0.220618	0.979599	1.59778	0.804592	1.39932	0.983336	0.952673	-0.0371694	-0.0475224	0.262965	-0.293938	0	0	0.363836	-0.0494528	-0.040277	0.540009	-0.148946	0	0	0.629066	0.0329035	-0.0993719	-0.39149	-0.267583	0.218144	0.351792	1.23225	0	0	-0.385838	-0.116008	-0.563249	0.630561	1.08827	0	0
1.73	0.226351	0.978519	1.58388	0.805295	1.41354	0.98397	0.956681	-0.0236473	-0.0297614	0.301267	-0.271083	0	0	0.378323	-0.05826	-0.0361265	0.58871	-0.174917	0	0	0.631716	0.0447342	-0.0920731	-0.391734	-0.269434	0.208641	0.355642	1.22406	0	0	-0.386705	-0.113523	-0.562232	0.626274	1.08565	0	0
1.74	0.230968	0.978233	1.57082	0.806045	1.42737	0.984806	0.959714	-0.0103306	-0.0111274	0.339981	-0.246763	0	0	0.394705	-0.0659457	-0.0298755	0.63993	-0.205316	0	0	0.631694	0.0555471	-0.0840025	-0.390502	-0.271418	0.201157	0.360358	1.21785	0	0	-0.386458	-0.11064	-0.562277	0.623802	1.08111	0	0
1.75	0.23606	0.979047	1.55919	0.80666	1.44079	0.985737	0.959241	0.00151461	0.00211586	0.372447	-0.224246	0	0	0.412712	-0.0733497	-0.021125	0.693829	-0.237474	0	0	0.628932	0.0647113	-0.0771085	-0.388083	-0.273685	0.195233	0.36653	1.21376	0	0	-0.385687	-0.108583	-0.560796	0.623241	1.0784	0	0
1.76	0.244609	0.981568	1.54751	0.807048	1.45389	0.986723	0.95303	0.0117142	0.00562578	0.395499	-0.204707	0	0	0.432795	-0.0809981	-0.00870946	0.751572	-0.270122	0	0	0.623092	0.0730957	-0.0725365	-0.385276	-0.276374	0.190985	0.374969	1.21233	0	0	-0.383602	-0.107332	-0.558482	0.62397	1.07924	0	0
1.77	0.257566	0.985266	1.53543	0.807124	1.46666	0.987703	0.941231	0.0200576	-0.00131337	0.409439	-0.187528	0	0	0.455097	-0.0890742	0.00700064	0.812652	-0.303142	0	0	0.615306	0.0812123	-0.0708724	-0.382749	-0.279752	0.187405	0.385989	1.21306	0	0	-0.380121	-0.106734	-0.555654	0.625257	1.08466	0	0
1.78	0.272387	0.988912	1.5241	0.806955	1.479	0.988588	0.926341	0.0266968	-0.0145071	0.416472	-0.172544	0	0	0.480475	-0.095456	0.0252356	0.875022	-0.336351	0	0	0.606891	0.0887062	-0.0704694	-0.380967	-0.283812	0.183595	0.400199	1.21555	0	0	-0.375544	-0.106897	-0.551805	0.627308	1.09453	0	0
1.79	0.288105	0.992773	1.51337	0.80664	1.49101	0.989419	0.908782	0.0326734	-0.0277578	0.417564	-0.159667	0	0	0.506886	-0.101583	0.0442974	0.934501	-0.372269	0	0	0.59789	0.0957524	-0.0700585	-0.380243	-0.288256	0.178455	0.41745	1.21907	0	0	-0.36938	-0.106655	-0.549089	0.630254	1.10324	0	0
1.8	0.302391	0.997029	1.50556	0.805974	1.50301	0.990347	0.889329	0.0366557	-0.0417523	0.415098	-0.149025	0	0	0.533678	-0.103983	0.0564585	0.993353	-0.391394	0	0	0.589565	0.100996	-0.0701179	-0.379802	-0.292766	0.173746	0.434774	1.22281	0	0	-0.363194	-0.106288	-0.546083	0.633306	1.10901	0	0
1.81	0.317977	0.999377	1.49754	0.805633	1.51485	0.991236	0.871324	0.0417325	-0.0559064	0.410813	-0.137368	0	0	0.559991	-0.109578	0.0825638	1.03909	-0.442568	0	0	0.583851	0.106395	-0.0708721	-0.381776	-0.296897	0.165113	0.456367	1.22933	0	0	-0.356974	-0.106943	-0.542154	0.635495	1.11356	0	0
1.82	0.326093	1.00203	1.49412	0.805306	1.52674	0.992474	0.853634	0.0450938	-0.0668592	0.406278	-0.130792	0	0	0.585711	-0.110254	0.0960599	1.08355	-0.462354	0	0	0.579465	0.108265	-0.0692934	-0.379309	-0.300006	0.163253	0.470488	1.23478	0	0	-0.35256	-0.108175	-0.538243	0.637571	1.11579	0	0
1.83	0.328323	1.00436	1.49387	0.805106	1.53865	0.993963	0.837406	0.0475332	-0.0752985	0.402589	-0.124823	0	0	0.610299	-0.108604	0.104378	1.12255	-0.473927	0	0	0.576616	0.108245	-0.0654259	-0.376272	-0.302828	0.162198	0.484003	1.24027	0	0	-0.348899	-0.109829	-0.534408	0.637791	1.11691	0	0
